<svg xmlns="http://www.w3.org/2000/svg" xmlns:xlink="http://www.w3.org/1999/xlink" width="500" zoomAndPan="magnify" viewBox="0 0 375 374.999991" height="500" preserveAspectRatio="xMidYMid meet" version="1.0"><defs><g/><clipPath id="d6e572a350"><path d="M 37.5 37.5 L 337.5 37.5 L 337.5 337.5 L 37.5 337.5 Z M 37.5 37.5 " clip-rule="nonzero"/></clipPath><clipPath id="f135ce0445"><path d="M 187.5 37.5 C 104.65625 37.5 37.5 104.65625 37.5 187.5 C 37.5 270.34375 104.65625 337.5 187.5 337.5 C 270.34375 337.5 337.5 270.34375 337.5 187.5 C 337.5 104.65625 270.34375 37.5 187.5 37.5 Z M 187.5 37.5 " clip-rule="nonzero"/></clipPath><clipPath id="4e275472f8"><path d="M 75.945312 131.46875 L 110.433594 131.46875 L 110.433594 283.234375 L 75.945312 283.234375 Z M 75.945312 131.46875 " clip-rule="nonzero"/></clipPath><clipPath id="8a08e7af98"><path d="M 140.410156 209.546875 L 327 209.546875 L 327 235.167969 L 140.410156 235.167969 Z M 140.410156 209.546875 " clip-rule="nonzero"/></clipPath></defs><rect x="-37.5" width="450" fill="#ffffff" y="-37.499999" height="449.999989" fill-opacity="1"/><rect x="-37.5" width="450" fill="#ffffff" y="-37.499999" height="449.999989" fill-opacity="1"/><g clip-path="url(#d6e572a350)"><g clip-path="url(#f135ce0445)"><path fill="#f4eeff" d="M 37.5 37.5 L 337.5 37.5 L 337.5 337.5 L 37.5 337.5 Z M 37.5 37.5 " fill-opacity="1" fill-rule="nonzero"/></g></g><g fill="#424874" fill-opacity="1"><g transform="translate(65.303374, 233.311933)"><g><path d="M 109.609375 -71.921875 C 109.609375 -65.585938 107.898438 -59.851562 104.484375 -54.71875 C 101.066406 -49.59375 96.09375 -45.828125 89.5625 -43.421875 L 112.625 0 L 75.234375 0 L 56.84375 -37.84375 L 44.46875 -37.84375 L 44.46875 0 L 11.15625 0 L 11.15625 -103.734375 L 74.625 -103.734375 C 82.0625 -103.734375 88.414062 -102.300781 93.6875 -99.4375 C 98.96875 -96.570312 102.941406 -92.703125 105.609375 -87.828125 C 108.273438 -82.953125 109.609375 -77.648438 109.609375 -71.921875 Z M 75.6875 -70.5625 C 75.6875 -73.269531 74.78125 -75.53125 72.96875 -77.34375 C 71.15625 -79.15625 68.945312 -80.0625 66.34375 -80.0625 L 44.46875 -80.0625 L 44.46875 -60.90625 L 66.34375 -60.90625 C 68.945312 -60.90625 71.15625 -61.832031 72.96875 -63.6875 C 74.78125 -65.550781 75.6875 -67.84375 75.6875 -70.5625 Z M 75.6875 -70.5625 "/></g></g></g><g clip-path="url(#4e275472f8)"><path fill="#424874" d="M 75.945312 131.46875 L 110.433594 131.46875 L 110.433594 283.296875 L 75.945312 283.296875 Z M 75.945312 131.46875 " fill-opacity="1" fill-rule="nonzero"/></g><g clip-path="url(#8a08e7af98)"><path fill="#424874" d="M 140.410156 209.546875 L 326.964844 209.546875 L 326.964844 235.167969 L 140.410156 235.167969 Z M 140.410156 209.546875 " fill-opacity="1" fill-rule="nonzero"/></g><path stroke-linecap="butt" transform="matrix(0.75, -0.000000000000000372, 0.000000000000000372, 0.75, 76.942396, 116.714992)" fill="none" stroke-linejoin="miter" d="M -0.00132 1.999802 L 65.186184 1.999802 " stroke="#424874" stroke-width="4" stroke-opacity="1" stroke-miterlimit="4"/><path stroke-linecap="butt" transform="matrix(0.75, 0, 0, 0.75, 119.961465, 75.061944)" fill="none" stroke-linejoin="miter" d="M 74.077427 143.328876 C 74.077427 119.016374 80.775344 100.584081 94.171178 88.037206 C 107.598263 75.453871 126.676389 69.167413 151.39514 69.167413 C 176.1191 69.167413 195.207643 75.49033 208.671186 88.136164 C 222.165978 100.755956 228.915979 119.151791 228.915979 143.328876 C 228.915979 159.438252 225.87952 173.016378 219.811812 184.07367 C 213.775353 195.094504 204.994102 203.45388 193.462852 209.151797 L 226.171187 242.313257 L 171.384725 242.313257 L 149.311807 217.490339 C 125.129514 217.084089 106.546179 210.589297 93.561803 198.011171 C 80.572219 185.427837 74.077427 167.203877 74.077427 143.328876 Z M 181.811809 136.667417 C 181.811809 126.526791 179.202434 118.469499 173.978475 112.505957 C 168.790975 106.537207 161.264933 103.552832 151.39514 103.552832 C 141.525348 103.552832 134.014931 106.537207 128.863889 112.505957 C 123.738889 118.469499 121.181597 126.526791 121.181597 136.667417 L 121.181597 149.990335 C 121.181597 160.13096 123.738889 168.188253 128.863889 174.151795 C 134.014931 180.120545 141.525348 183.10492 151.39514 183.10492 C 161.264933 183.10492 168.790975 180.120545 173.978475 174.151795 C 179.202434 168.188253 181.811809 160.13096 181.811809 149.990335 Z M 181.811809 136.667417 " stroke="#f4eeff" stroke-width="29.690445" stroke-opacity="1" stroke-miterlimit="4"/><g fill="#424874" fill-opacity="1"><g transform="translate(168.500524, 236.311933)"><g><path d="M 7.03125 -53.75 C 7.03125 -71.988281 12.054688 -85.820312 22.109375 -95.25 C 32.160156 -104.675781 46.457031 -109.390625 65 -109.390625 C 83.550781 -109.390625 97.878906 -104.648438 107.984375 -95.171875 C 118.085938 -85.691406 123.140625 -71.882812 123.140625 -53.75 C 123.140625 -41.664062 120.875 -31.484375 116.34375 -23.203125 C 111.8125 -14.921875 105.222656 -8.644531 96.578125 -4.375 L 121.109375 20.46875 L 80.015625 20.46875 L 63.4375 1.875 C 45.3125 1.5625 31.378906 -3.304688 21.640625 -12.734375 C 11.898438 -22.160156 7.03125 -35.832031 7.03125 -53.75 Z M 87.828125 -58.75 C 87.828125 -66.351562 85.867188 -72.394531 81.953125 -76.875 C 78.046875 -81.363281 72.394531 -83.609375 65 -83.609375 C 57.601562 -83.609375 51.976562 -81.363281 48.125 -76.875 C 44.269531 -72.394531 42.34375 -66.351562 42.34375 -58.75 L 42.34375 -48.75 C 42.34375 -41.144531 44.269531 -35.101562 48.125 -30.625 C 51.976562 -26.144531 57.601562 -23.90625 65 -23.90625 C 72.394531 -23.90625 78.046875 -26.144531 81.953125 -30.625 C 85.867188 -35.101562 87.828125 -41.144531 87.828125 -48.75 Z M 87.828125 -58.75 "/></g></g></g><g fill="#424874" fill-opacity="1"><g transform="translate(65.303374, 233.311933)"><g><path d="M 109.609375 -71.921875 C 109.609375 -65.585938 107.898438 -59.851562 104.484375 -54.71875 C 101.066406 -49.59375 96.09375 -45.828125 89.5625 -43.421875 L 112.625 0 L 75.234375 0 L 56.84375 -37.84375 L 44.46875 -37.84375 L 44.46875 0 L 11.15625 0 L 11.15625 -103.734375 L 74.625 -103.734375 C 82.0625 -103.734375 88.414062 -102.300781 93.6875 -99.4375 C 98.96875 -96.570312 102.941406 -92.703125 105.609375 -87.828125 C 108.273438 -82.953125 109.609375 -77.648438 109.609375 -71.921875 Z M 75.6875 -70.5625 C 75.6875 -73.269531 74.78125 -75.53125 72.96875 -77.34375 C 71.15625 -79.15625 68.945312 -80.0625 66.34375 -80.0625 L 44.46875 -80.0625 L 44.46875 -60.90625 L 66.34375 -60.90625 C 68.945312 -60.90625 71.15625 -61.832031 72.96875 -63.6875 C 74.78125 -65.550781 75.6875 -67.84375 75.6875 -70.5625 Z M 75.6875 -70.5625 "/></g></g></g></svg>